<svg xmlns="http://www.w3.org/2000/svg" width="1024" height="1024" viewBox="0 0 1024 1024" version="1.1">
	<path d="M 371.778 96.457 C 366.483 100.324, 360.342 106.468, 351.964 116.280 C 308.364 167.346, 283.537 188.651, 243.995 208.932 C 226.299 218.009, 225.948 218.473, 226.128 232.579 C 226.287 245.068, 225.107 247.892, 216.391 255.879 C 208.235 263.353, 199.364 268.137, 193.277 268.344 C 188.840 268.495, 188.597 268.350, 186.028 264.001 C 184.566 261.527, 182.656 259.365, 181.785 259.197 C 178.468 258.558, 168.033 281.593, 166.612 292.688 C 165.757 299.364, 168.035 310.457, 171.610 317.024 C 174.255 321.884, 184.862 333, 186.855 333 C 187.407 333, 188.573 330.541, 189.447 327.535 C 190.321 324.530, 192.100 320.833, 193.401 319.320 L 195.766 316.571 205.133 319.223 C 210.385 320.711, 214.884 321.498, 215.373 321.015 C 215.868 320.527, 215.327 318.863, 214.123 317.173 C 211.053 312.861, 211.351 308.408, 214.934 305.061 C 218.651 301.590, 240.980 288.681, 248.682 285.551 C 259.932 280.980, 277.297 278.751, 284.987 280.892 C 287.212 281.511, 286.549 282.077, 278.713 286.245 C 256.757 297.925, 248.497 305.741, 236.067 326.599 C 231.511 334.244, 227.719 340.574, 227.641 340.664 C 227.564 340.754, 223.931 341.323, 219.568 341.929 C 215.206 342.535, 211.423 343.244, 211.162 343.505 C 210.438 344.228, 214.095 351.831, 217.283 356.232 C 225.006 366.893, 244.105 368.068, 262 358.983 C 268.953 355.453, 275.869 349.510, 274.500 348.242 C 273.950 347.733, 270.480 346.525, 266.789 345.558 C 258.979 343.511, 257.223 342, 258.753 338.642 C 260.824 334.097, 269.856 324.322, 277.107 318.779 C 289.883 309.012, 296.248 307.208, 322 306.053 C 334.908 305.475, 340.615 304.811, 343.750 303.526 C 346.087 302.567, 348 301.469, 348 301.085 C 348 300.701, 344.811 298.844, 340.914 296.958 C 337.016 295.073, 333.618 293.192, 333.363 292.778 C 333.107 292.364, 334.744 288.862, 337.002 284.997 C 339.259 281.131, 342.207 275.613, 343.553 272.734 L 346 267.500 345.750 272.500 L 345.500 277.500 351.500 278.101 C 367.668 279.722, 373.952 288.696, 369.475 303.772 C 366.781 312.844, 358.998 322.898, 342.409 338.735 C 333.903 346.856, 326.262 354.526, 325.429 355.780 C 323.968 357.980, 324.059 358.124, 328.019 359.897 C 331.778 361.580, 331.929 361.787, 329.812 362.354 C 328.540 362.694, 324.826 362.979, 321.558 362.986 L 315.615 363 306.888 372.006 C 296.491 382.735, 288.796 392.704, 289.219 394.899 C 289.518 396.451, 294.358 398.476, 304.500 401.291 C 309.398 402.650, 309.232 402.677, 296.357 402.589 C 280.987 402.485, 281.494 402.226, 274.242 413.861 C 268.413 423.215, 263.039 436.336, 263.017 441.271 C 262.995 446.274, 264.452 446.830, 280 447.756 L 292.500 448.501 279.500 450.803 C 261.535 453.984, 260.969 454.160, 258.624 457.301 C 257.026 459.443, 256.424 462.098, 256.023 468.793 C 255.304 480.762, 256.594 495.514, 258.743 499.908 L 260.500 503.500 267.500 503.361 C 271.350 503.285, 279.196 502.056, 284.935 500.630 C 290.674 499.203, 295.505 498.172, 295.670 498.337 C 295.835 498.502, 289.002 502.361, 280.485 506.912 L 265 515.187 265.024 518.844 C 265.125 534.397, 295.209 570.995, 318.170 583.495 L 322.840 586.038 325.832 578.269 C 330.529 566.070, 330.639 564.299, 327.185 556.370 C 321.989 544.441, 319.862 536.095, 319.317 525.500 C 318.678 513.091, 320.488 503.814, 325.730 492.629 C 328.906 485.853, 339 470.262, 339 472.134 C 339 472.459, 337.624 476.049, 335.942 480.112 C 324.297 508.247, 324.588 533.267, 336.860 559.033 L 339.737 565.073 333.501 579.460 C 322.266 605.376, 314.892 617.508, 300.110 634.393 C 290.140 645.781, 287.031 648.295, 280.119 650.556 C 272.674 652.991, 267.682 651.976, 255.295 645.509 C 240.145 637.598, 238.280 637.765, 222.008 648.495 C 205.470 659.400, 200.540 667.489, 201.164 682.700 C 201.349 687.211, 201.969 691.370, 202.543 691.943 C 203.266 692.666, 204.893 690.996, 207.856 686.489 C 214.722 676.047, 227.304 666.983, 234.888 667.015 C 240.902 667.041, 241.481 668.368, 236.530 670.773 C 230.248 673.825, 224.292 679.519, 221.192 685.437 C 218.805 689.991, 218.541 691.555, 218.559 701 C 218.573 708.104, 219.065 712.605, 220.079 714.916 L 221.578 718.332 224.817 713.284 C 229.493 705.998, 238.031 698.347, 245.241 694.982 C 251.768 691.937, 264.527 688.193, 265.401 689.068 C 265.679 689.345, 265.152 691.669, 264.231 694.231 C 263.309 696.793, 262.872 699.205, 263.259 699.592 C 263.646 699.979, 267.544 698.658, 271.923 696.657 C 290.925 687.970, 303.700 685.524, 314.968 688.412 C 327.251 691.561, 332 696.367, 332 705.648 C 332 712.244, 333.293 712.533, 339.154 707.250 C 346.828 700.332, 349.871 689.276, 346.972 678.840 C 345.789 674.582, 342.541 673, 334.976 673 C 332.377 673, 328.844 672.719, 327.125 672.375 C 321.192 671.188, 322.855 668.585, 340.772 651 C 356.122 635.935, 363.884 629.381, 391.957 607.777 C 397.158 603.775, 402.783 598.545, 404.457 596.156 C 407.153 592.308, 407.487 591.052, 407.386 585.156 C 407.307 580.590, 406.444 576.343, 404.636 571.631 C 400.939 561.998, 401.162 558.456, 405.944 550.808 C 412.729 539.956, 416.618 525.689, 419.794 500 L 420.597 493.500 421.886 505 C 423.946 523.378, 421.861 537.041, 414.274 554.878 L 410.711 563.255 412.955 568.378 C 418.815 581.755, 419.269 589.452, 414.664 597.311 C 412.017 601.826, 404.448 609.314, 396.781 615 C 394.185 616.925, 392.048 619.026, 392.031 619.670 C 392 620.842, 397.580 622.910, 406 624.847 C 412.241 626.282, 429.064 627.819, 444.347 628.351 C 457.096 628.794, 457.190 628.781, 456.636 626.649 C 456.328 625.467, 455.144 621.125, 454.004 617 C 451.358 607.427, 450.312 589.535, 451.942 581.737 C 453.847 572.629, 459.270 562.868, 465.684 557.006 C 480.327 543.623, 506.005 537.212, 523.500 542.572 L 529.500 544.411 521.500 545.238 C 494.274 548.051, 471.691 559.718, 464.058 574.912 C 454.399 594.138, 459.056 621.743, 476.175 646.727 C 481.764 654.885, 502.514 676.462, 509.949 681.848 C 512.342 683.582, 514.004 685, 513.642 685 C 511.492 685, 494.625 676.450, 489.700 672.864 C 483.124 668.075, 470.540 654.162, 465.697 646.327 L 462.500 641.154 455.500 640.500 C 448.801 639.875, 435.207 641.060, 426.311 643.046 C 409.943 646.700, 395.776 657.548, 388.967 671.643 C 384.527 680.835, 385.175 683.148, 391.023 678.984 C 395.526 675.777, 402.230 673.046, 405.654 673.022 L 408.808 673 406.904 678.011 C 405.044 682.906, 404.388 691.243, 405.613 694.433 C 406.082 695.656, 407.912 694.277, 413.416 688.554 C 422.435 679.177, 426.856 677.028, 437 677.089 L 444.500 677.134 440.286 678.451 C 427.789 682.356, 420.667 690.964, 417.907 705.499 C 416.930 710.643, 417.590 720.718, 419.059 723.096 C 419.676 724.095, 421.624 722.767, 426.694 717.890 C 434.458 710.422, 440.148 706.858, 447.932 704.585 C 462.445 700.349, 483.978 704.841, 508.012 717.119 C 521 723.754, 524.596 724.313, 533 721 C 539.156 718.573, 542.200 718.516, 552.072 720.637 C 562.354 722.846, 568.247 721.953, 572.690 717.510 C 578.934 711.266, 576.942 704.300, 565.379 691.936 C 557.540 683.553, 555.876 680.805, 551.037 668.253 L 547.857 660.006 540.679 656.679 C 536.730 654.848, 532.027 652.710, 530.226 651.926 C 527.233 650.622, 528.476 650.500, 544.726 650.500 L 562.500 650.500 570.457 646.701 C 574.833 644.612, 580.407 641.268, 582.845 639.271 C 588.691 634.481, 594.574 625.212, 597.148 616.738 C 598.292 612.974, 599.394 610.061, 599.599 610.265 C 599.803 610.470, 599.309 614.431, 598.500 619.069 C 595.533 636.075, 587.213 647.552, 573.192 653.977 C 564.422 657.996, 563.850 658.329, 563.818 659.453 C 563.804 659.978, 568.277 662.707, 573.760 665.519 C 593.039 675.405, 604.064 686.040, 612.061 702.467 C 618.928 716.572, 621.309 727.186, 621.264 743.500 C 621.221 759.291, 619.179 768.115, 612.364 781.957 C 604.329 798.276, 589.889 810.406, 571.583 816.214 C 563.906 818.650, 545.109 819.650, 535.411 818.137 C 526.567 816.758, 514.642 812.814, 505.500 808.245 C 492.131 801.563, 481.309 793.864, 455.500 772.671 C 415.044 739.451, 385.739 727.664, 343.500 727.624 C 329.317 727.611, 325.041 727.971, 317.693 729.799 C 277.916 739.693, 255 766.629, 255 803.490 C 255 873.858, 340.136 928.685, 464 938.084 C 483.526 939.565, 527.442 938.725, 546.500 936.504 C 597.407 930.573, 639.472 918.649, 680.500 898.519 C 710.269 883.914, 734.054 867.156, 752.701 847.651 C 778.796 820.355, 792.824 793.758, 799.455 759 C 800.871 751.575, 802.632 743.772, 803.367 741.661 L 804.704 737.821 805.348 743.307 C 806.162 750.231, 805.304 764.039, 803.389 774.812 C 800.831 789.208, 795.409 801.992, 785.838 816.195 C 783.727 819.327, 782 822.140, 782 822.445 C 782 823.708, 807.493 822.917, 814.792 821.427 C 828.769 818.575, 840.788 811.299, 850.985 799.517 C 855.086 794.779, 858.493 789.160, 857.728 788.395 C 857.498 788.164, 855.299 788.865, 852.842 789.952 C 845.795 793.069, 837.129 795, 830.185 795 L 823.790 795 831.645 789.407 C 845.534 779.518, 854.493 769.344, 860.653 756.465 C 868.148 740.795, 868.641 726.213, 862.529 701 C 858.674 685.096, 858.134 676.707, 860.528 669.920 C 863.627 661.137, 860.319 660.727, 852.705 668.952 C 843.988 678.367, 840.008 688.522, 839.994 701.386 C 839.978 716.053, 833.030 723.184, 825.800 715.954 C 822.801 712.955, 822.761 712.781, 823.224 704.704 C 823.569 698.687, 825.074 691.938, 828.869 679.390 C 834.678 660.181, 837 649.352, 837 641.477 C 837 629.834, 831.553 612.464, 824.386 601.248 C 817.984 591.232, 801.893 576.068, 804.288 582.308 C 808.905 594.340, 809.879 623.353, 806.141 637.500 C 802.943 649.606, 797.087 660.156, 783.863 677.638 C 760.217 708.897, 757.659 720.587, 767.154 754 C 774.151 778.623, 769.610 798.085, 752.068 818.653 C 725.802 849.448, 672.397 879.749, 615.726 896.009 C 578.605 906.660, 545.890 911.042, 503.577 911.033 C 467.466 911.025, 441.124 908, 410.772 900.375 C 360.390 887.717, 316.390 861.999, 301.423 836.459 C 289.749 816.538, 291.616 791.289, 305.812 777.092 C 326.841 756.063, 366.637 760.658, 403.448 788.363 C 410.697 793.820, 414.012 796.685, 436.653 817.064 C 471.683 848.595, 497.381 863.324, 529.312 870.173 C 542.675 873.039, 568.031 873.277, 581.270 870.661 C 599.744 867.010, 617.298 859.886, 632.395 849.911 C 642.182 843.444, 657.053 828.892, 663.792 819.186 L 668.870 811.872 670.630 814.558 C 671.664 816.135, 672.544 819.774, 672.764 823.372 C 673.304 832.237, 673.587 832.737, 676.511 829.989 C 683.094 823.805, 691.407 800.911, 694.482 780.500 C 696.193 769.142, 696.565 735.615, 695.025 731.565 C 691.835 723.175, 701.014 736.344, 705.962 747.256 C 707.644 750.965, 709.448 754, 709.971 754 C 712.036 754, 713.461 745.190, 713.369 733 C 713.215 712.789, 707.713 695.709, 693.072 670 C 689.156 663.125, 686.076 656.605, 686.227 655.510 C 686.829 651.129, 694.197 652.433, 703.896 658.638 C 707.853 661.170, 711.391 662.942, 711.757 662.576 C 712.909 661.425, 707.815 648.144, 703.160 640.159 C 693.160 623.008, 679.807 608.008, 661.750 593.642 C 656.388 589.376, 652 585.450, 652 584.918 C 652 581.416, 666.768 581.361, 677.755 584.823 C 681.195 585.906, 684.230 586.436, 684.500 586 C 685.423 584.507, 676.205 573.270, 668.902 566.985 C 656.182 556.037, 645.028 549.621, 621.976 539.991 C 597.315 529.689, 595.695 528.087, 606.506 524.701 C 611.365 523.179, 614.441 522.924, 622.750 523.356 C 634.861 523.985, 635.320 523.440, 628.250 516.838 C 614.087 503.612, 596.081 495.254, 568.444 489.076 C 548.254 484.563, 545 483.369, 545 480.471 C 545 476.030, 554.403 470.811, 564.917 469.417 C 574.838 468.101, 573.992 465.765, 561.465 459.880 C 550.342 454.655, 536.375 451.234, 517.162 449.031 C 508.176 448, 500.526 446.855, 500.162 446.486 C 499.798 446.118, 502.249 443.228, 505.609 440.065 C 515.729 430.540, 525.291 427.031, 541.185 427.012 C 568.858 426.978, 596.966 440.522, 620.663 465.309 C 630.972 476.093, 637.538 485.486, 644.094 498.827 L 648.688 508.177 651.928 498.838 C 653.710 493.702, 658.019 483.549, 661.505 476.275 C 677.456 442.984, 695.991 423.373, 715.675 418.960 C 723.584 417.188, 735.018 417.650, 742.151 420.032 C 777.342 431.782, 817.065 489.399, 831.868 550.162 C 833.806 558.119, 835.094 561.587, 836.189 561.798 C 838.406 562.225, 838.797 560.606, 839.940 546.270 C 841.747 523.613, 841.850 510.579, 840.718 448.373 C 839.520 382.568, 839.980 369.575, 843.963 356.796 C 847.450 345.605, 852.938 341, 862.786 341 C 873.679 341, 888.452 347.912, 907.975 362.143 C 914.723 367.061, 920.652 370.949, 921.152 370.783 C 923.827 369.891, 904.863 337.708, 887.988 314.500 C 830.473 235.400, 764.128 181.682, 677.191 143.822 C 620.293 119.044, 547.881 98.814, 493.506 92.507 C 479.112 90.838, 455.437 90.483, 454.547 91.924 C 454.233 92.433, 457.244 94.433, 461.238 96.368 C 485.522 108.138, 503.393 126.226, 515.168 150.954 C 520.460 162.068, 528.181 185.421, 531.448 200.195 C 536.266 221.989, 537.340 232.038, 537.408 256 C 537.463 275.573, 537.177 279.964, 535.205 289.755 C 529.107 320.029, 518.603 340.485, 499.069 360.129 C 483.674 375.610, 467.673 385.462, 446.160 392.704 C 433.051 397.118, 422.030 398.242, 418.976 395.478 C 417.479 394.124, 417 392.398, 417 388.366 C 417 381.015, 420.097 372.254, 429.318 353.522 C 444.363 322.958, 448.705 309.085, 449.697 288.411 C 451.699 246.675, 432.982 211.924, 400.346 196.786 C 394.002 193.843, 392.693 193.607, 382.500 193.555 C 376.450 193.525, 369.025 193.855, 366 194.289 L 360.500 195.078 368 190.228 C 383.788 180.016, 401.357 163.500, 412.781 148.128 C 421.836 135.943, 429.614 119, 426.152 119 C 425.686 119, 421.524 121.842, 416.902 125.315 C 395.072 141.721, 367.644 159.608, 352.913 167.044 C 347.732 169.659, 336.783 174, 335.368 174 C 335.007 174, 347.081 156.618, 353.775 147.500 C 360.583 138.228, 380.813 94.940, 379.783 91.850 C 379.601 91.302, 375.998 93.375, 371.778 96.457 M 564.500 143.731 C 618.754 172.537, 650.501 195.150, 688.402 231.988 C 741.603 283.695, 772.902 335.065, 807.068 426.749 C 811.424 438.436, 815.977 451.361, 817.186 455.473 C 818.396 459.584, 819.523 462.811, 819.690 462.643 C 820.300 462.033, 816.974 439.604, 814.476 427.478 C 805.762 385.181, 786.186 335.862, 764.005 300.324 C 749.280 276.731, 734.647 258.796, 712.184 236.810 C 666.577 192.169, 628.059 166.896, 571.500 144.501 C 562.150 140.799, 553.825 137.558, 553 137.299 C 552.175 137.041, 557.350 139.935, 564.500 143.731 M 423.755 174.098 C 413.236 175.245, 397.374 181.313, 396.294 184.601 C 396.095 185.207, 398.085 186.509, 400.716 187.494 C 418.611 194.197, 438.495 213.026, 448.244 232.500 C 455.063 246.120, 458.992 264.400, 458.992 282.500 C 458.992 305.292, 454.305 322.425, 440.562 349.875 C 432.619 365.740, 427 379.642, 427 383.426 C 427 384.365, 427.859 385, 429.126 385 C 431.437 385, 451.404 379.305, 454.250 377.834 C 456.510 376.666, 456.472 375.338, 453.863 364.430 C 452.669 359.441, 451.976 354.231, 452.323 352.851 C 453.669 347.488, 462.318 346.534, 472.533 350.624 C 476.137 352.067, 479.354 352.980, 479.680 352.653 C 480.007 352.326, 480.232 348.108, 480.180 343.279 C 480.074 333.407, 476.691 318.373, 472.529 309.282 C 470.021 303.804, 470.009 303.669, 471.789 300.609 C 473.210 298.167, 474.382 297.434, 477.253 297.192 C 480.566 296.914, 482.716 297.628, 496.750 303.675 C 499.849 305.011, 497.144 292.197, 492.245 282.330 C 488.169 274.122, 482.696 266.882, 474.638 259.039 C 467.307 251.905, 466.456 249.233, 470.054 244.659 C 472.963 240.960, 478.364 239.805, 488.992 240.607 C 496.995 241.211, 498 241.102, 498 239.625 C 498 236.958, 485.938 225.647, 478.179 221.037 C 470.477 216.461, 453.825 209.585, 447.732 208.464 C 443.546 207.694, 440 204.042, 440 200.500 C 440 195.350, 445.471 191.261, 457.500 187.422 C 461.586 186.118, 464.500 184.629, 464.500 183.844 C 464.500 182.030, 454.890 177.376, 447.500 175.610 C 439.467 173.690, 431.906 173.209, 423.755 174.098 M 561.406 188.250 C 607.182 263.139, 627.366 325.545, 637.491 423.500 C 638.855 436.700, 640.657 453.350, 641.494 460.500 C 642.332 467.650, 643.052 474.850, 643.095 476.500 L 643.172 479.500 644.074 476.500 C 647.916 463.728, 650.011 424.657, 648.097 401.500 C 641.777 325.062, 617.694 256.322, 579.348 205.269 C 571.092 194.278, 557.250 178.289, 555.820 178.093 C 555.446 178.042, 557.960 182.613, 561.406 188.250 M 279.518 227.082 C 269.239 230.563, 265.079 232.831, 259.665 237.905 C 255.861 241.471, 251.386 248.719, 252.376 249.710 C 253.091 250.425, 262.638 248.064, 267.615 245.942 C 269.889 244.972, 273.245 242.288, 275.115 239.942 C 276.977 237.607, 280.931 233.065, 283.902 229.849 C 286.873 226.632, 289.123 224.009, 288.902 224.021 C 288.681 224.032, 284.458 225.410, 279.518 227.082 M 359 239.360 C 359 239.607, 360.919 240.934, 363.264 242.309 C 369.417 245.915, 377.309 254.689, 381.031 262.061 C 382.803 265.572, 385.486 273.338, 386.994 279.318 C 389.172 287.960, 389.871 289.652, 390.396 287.559 C 391.549 282.964, 391.273 267.358, 389.967 263.354 C 387.291 255.146, 379.913 246.994, 371.213 242.634 C 366.828 240.437, 359 238.338, 359 239.360 M 184.557 290.223 C 182.987 292.463, 182.358 300.049, 183.750 299.943 C 184.162 299.911, 186.410 297.574, 188.745 294.749 C 191.815 291.034, 192.646 289.393, 191.745 288.821 C 189.423 287.347, 186.120 287.991, 184.557 290.223 M 206.500 337.900 C 200.998 340.452, 196.591 345.390, 193.469 352.500 C 189.994 360.410, 187.782 362.613, 181.893 364.026 C 179.198 364.672, 176.748 365.599, 176.447 366.085 C 176.147 366.571, 177.386 367.874, 179.201 368.981 C 185.351 372.730, 195.881 370.883, 199.455 365.428 C 200.320 364.108, 202.404 359.224, 204.086 354.575 C 206.321 348.400, 208.338 344.841, 211.573 341.368 C 214.008 338.753, 216 336.475, 216 336.307 C 216 335.303, 209.887 336.328, 206.500 337.900 M 158.369 458.448 C 154.996 459.206, 150.721 460.589, 148.869 461.521 C 143.062 464.442, 136.149 471.987, 133.988 477.762 C 132.070 482.889, 131.299 490, 132.662 490 C 133.027 490, 135.389 488.692, 137.912 487.094 C 146.941 481.376, 160.088 479.181, 165.929 482.417 L 168.359 483.762 164.929 484.493 C 157.795 486.012, 147.563 491.604, 143.201 496.367 C 137.376 502.727, 134.845 508.871, 134.251 518.085 C 133.773 525.497, 135.940 537, 137.813 537 C 138.230 537, 139.971 534.188, 141.683 530.750 C 143.395 527.313, 146.435 522.606, 148.440 520.292 C 151.954 516.234, 161.312 510.823, 167.206 509.440 C 169.511 508.899, 170.007 509.180, 170.546 511.329 C 171.350 514.531, 173.546 516.441, 178.103 517.903 C 183.514 519.638, 185.335 522.207, 192.993 538.915 C 201.027 556.441, 201.879 559.968, 199.297 565 C 196.551 570.349, 191.996 572.237, 183.261 571.646 C 178.898 571.350, 175.772 571.559, 175.394 572.171 C 175.049 572.730, 176.717 575.174, 179.101 577.603 C 184.889 583.500, 192.325 586.316, 200.729 585.795 C 209.990 585.220, 214.276 581.848, 219.903 570.713 C 225.153 560.325, 226.381 559.930, 233.771 566.250 C 236.505 568.587, 243.862 574.933, 250.120 580.351 C 268.452 596.220, 287.394 607.932, 292.298 606.430 C 293.509 606.059, 295.134 605.248, 295.909 604.628 C 298.012 602.944, 310 587.928, 310 586.977 C 310 586.524, 306.738 584.008, 302.750 581.386 C 293.716 575.444, 275.951 557.715, 270.074 548.774 C 265.747 542.192, 265.489 541.994, 258.028 539.509 C 243.439 534.651, 229.658 524.291, 219.021 510.185 C 213.453 502.802, 212.777 500.931, 210.549 486.733 C 207.441 466.926, 200.525 460.104, 188.575 465.057 L 183.111 467.322 179.475 464.411 C 177.476 462.810, 174.852 460.701, 173.646 459.724 C 170.594 457.252, 165.561 456.832, 158.369 458.448" stroke="none" fill="#000000" fill-rule="evenodd"/>
    <style>
        path { fill: #000; }
        @media (prefers-color-scheme: dark) {
            path { fill: #FFF; }
        }
    </style>
</svg>
